<?xml version="1.0" encoding="utf-8"?>
<svg version="1.1" id="Layer_1" xmlns="http://www.w3.org/2000/svg" xmlns:xlink="http://www.w3.org/1999/xlink" x="0px" y="0px"
	 viewBox="0 0 210.3 210.3" style="enable-background:new 0 0 210.3 210.3;" xml:space="preserve">
<style type="text/css">
	.st0{display:none;}
</style>
<path fill="currentColor" d="M210,20.8c-0.5-5-2.5-9.3-5.8-13c-3.7-4-8.2-6.5-13.6-7.4c-0.9-0.2-1.9-0.2-2.9-0.3c-0.2,0-0.5-0.1-0.7-0.1
	C132.5,0,77.8,0,23.2,0c-0.3,0-0.6,0.1-1,0.1C17.8,0.3,13.6,1.7,10,4.3C4.9,8,1.7,12.9,0.5,19c-0.2,1.1-0.3,2.3-0.4,3.4
	c0,0.2-0.1,0.5-0.1,0.7c0,54.7,0,109.4,0,164.1v0c0,0.2,0.1,0.4,0.1,0.6c0.7,10,5.7,17,15,20.9c2.2,1,4.6,1.4,7,1.5
	c0.3,0,0.7,0.1,1,0.1h164.1c0.8-0.1,1.5-0.2,2.3-0.2c3.9-0.4,7.6-1.8,10.8-4.1c5.1-3.6,8.2-8.5,9.5-14.7c0.2-1,0.2-2,0.4-3
	c0-0.3,0.1-0.5,0.1-0.8V22.8C210.2,22.1,210.1,21.5,210,20.8z M23.4,72c9.3,0,18.5,0.1,27.8,0.1c1.2,0,2.4,0,3.9,0
	c0-0.9,0-1.6,0-2.2c0-17.4,0-34.7,0-52.1c0-1.1,0-2.1,0.5-3.1c0.9-2.2,2.5-3.2,4.8-3.5c0.5,0,1,0,1.5,0c29.1,0,58.1,0,87.2,0
	c2.8,0,4.7,1.2,5.7,3.7c0.3,0.7,0.4,1.6,0.4,2.4c0,4.1,0,8.2,0,12.4c0,13.5,0,27,0,40.5c0,0.5,0,1.1,0,1.8c0.8,0,1.5,0.1,2.1,0.1
	c9.7,0,19.3,0,29,0c1.8,0,3.4,0.4,4.7,1.8c2,2,2.3,5.4,0.3,7.7c-2.2,2.4-4.4,4.7-6.6,7c-3,3.1-6,6.3-9.1,9.4
	c-2.1,2.2-4.2,4.3-6.3,6.4c-3.1,3.3-6.2,6.6-9.3,9.8c-3.5,3.6-7,7.2-10.4,10.9c-3.6,3.8-7.2,7.6-10.8,11.3c-3,3.2-6.1,6.3-9.2,9.5
	c-3.1,3.2-6.1,6.4-9.1,9.6c-3.6,3.7-7.2,7.5-10.7,11.2c-1.1,1.1-2.4,1.8-4,2.1c-2.2,0.4-3.9-0.8-5.3-2.3c-2.9-3-5.8-6-8.7-9.1
	c-2.7-2.9-5.4-5.8-8.1-8.6c-8.2-8.5-16.4-17.1-24.6-25.6c-7.2-7.5-14.4-15.1-21.6-22.6c-5.8-6.1-11.6-12.1-17.5-18.1
	c-1.1-1.2-2.1-2.4-2.2-4C17.4,74.9,19.9,72,23.4,72z M195.1,194.9c-1,1.5-2.5,2.4-4.2,3.2c-1.9,0.8-3.9,1-6,1c-26.6,0-53.2,0-79.9,0
	c-26.2,0-52.4,0-78.6,0c-1.4,0-2.7-0.1-4.1-0.2c-4.5-0.4-8.5-5-9.4-8.7c-1.2-4.9,1.7-10.9,5.8-12.9c1.9-0.9,3.9-1.4,6-1.4
	c13.9,0,27.9,0,41.8,0c7.6,0,15.3,0,22.9,0c5.2,0,10.4,0,15.6,0c0,0,0,0,0-0.1c26.8,0,53.6,0,80.3,0c3.1,0,6,0.9,8.4,3
	c1.6,1.5,2.8,3.3,3.4,5.4C198.4,188.3,197.4,191.7,195.1,194.9z"/>
</svg>
