<?xml version="1.0" encoding="utf-8"?>
<!-- Generator: Adobe Illustrator 28.1.0, SVG Export Plug-In . SVG Version: 6.00 Build 0)  -->
<svg version="1.1" id="Layer_3" xmlns="http://www.w3.org/2000/svg" xmlns:xlink="http://www.w3.org/1999/xlink" x="0px" y="0px"
	 viewBox="0 0 467.5 464.8" style="enable-background:new 0 0 467.5 464.8;" xml:space="preserve">
<g>
	<path d="M465.5,222c0,7.4,0,14.8,0,22.2c-0.1,0.4-0.2,0.9-0.2,1.3c-0.1,6.6-0.8,13.2-1.7,19.8c-1.2,8.5-3,17-5.6,25.2
		c-3.1,9.5-7.2,18.4-13.1,26.5c-7.7,10.5-17.5,18.2-29.8,22.7c-7.9,2.9-16,4.2-24.4,4.2c-11.7,0-23.4,0-35.1,0c-40.3,0-80.7,0-121,0
		c-0.6,0-1.2,0-1.7,0.1c-0.3,1.3-0.3,14.8,0,15.8c0.6,0,1.2,0,1.8,0c24.2,0,48.4,0,72.5,0c12.2,0,24.4,0,36.6,0
		c0.5,0,1.1,0.1,1.7,0.1c0,0.5,0.1,0.9,0.1,1.3c0,17.3,0,34.7,0,52c0,5.5-1.4,10.7-3.9,15.5c-3.2,6.2-8,11.1-13.6,15.2
		c-6.7,4.9-14.2,8.3-22.1,11c-12.5,4.2-25.5,6.4-38.6,7.7c-6.5,0.7-13,1.1-19.5,1.3c-0.4,0-0.7,0.1-1.1,0.2c-7.9,0-15.8,0-23.7,0
		c-0.4-0.1-0.9-0.1-1.3-0.2c-6.1-0.4-12.1-0.7-18.2-1.3c-8.2-0.7-16.3-2-24.3-3.9c-9.2-2.1-18.1-5-26.5-9.2
		c-6.6-3.3-12.6-7.4-17.9-12.6c-7-7.1-11.6-15.5-13.4-25.3c-0.6-3.3-0.9-6.6-0.9-10c0-33.5,0-67.1,0-100.6c0-5.2,0.4-10.4,1.4-15.5
		c3.3-16.7,12.4-29.3,27.4-37.4c10.8-5.8,22.4-8.5,34.7-8.6c25.2-0.1,50.4,0,75.7,0c12.5,0,24.9,0,37.4,0c6.3,0,12.6-0.8,18.7-2.4
		c10.4-2.7,19.5-7.8,27-15.7c6-6.5,10.2-14,13.1-22.3c2.9-8.5,4.2-17.2,4.2-26.2c0-17.5,0-35.1,0-52.6c0-0.6,0-1.2,0.1-1.9
		c0.5,0,1-0.1,1.4-0.1c12.7,0,25.3,0,38,0c3.4,0,6.7,0.4,10,1.1c10,2.2,18.6,7.2,26,14.2c6.8,6.5,11.9,14.2,15.9,22.7
		c4.5,9.5,7.5,19.4,9.6,29.7c2.3,11.3,3.6,22.8,3.9,34.4C465.3,221,465.4,221.5,465.5,222z M276.6,408.3c0,11.2,9,20.2,20.3,20.2
		c11.2,0,20.2-9,20.2-20.2c0-11.2-9.1-20.3-20.3-20.3C285.6,388,276.6,397,276.6,408.3z"/>
	<path d="M226,0.7c4.7,0,9.5,0,14.2,0c0.6,0.1,1.2,0.2,1.8,0.2c2.2,0.1,4.4,0.2,6.6,0.3c10.4,0.4,20.8,1.4,31.1,3.2
		c9.7,1.7,19.2,4.1,28.3,7.7c7.4,3,14.3,6.6,20.5,11.7c11.9,9.7,18.3,22.2,18.4,37.7c0,34.7,0,69.4,0,104.2c0,4.4-0.4,8.8-1.2,13.2
		c-1.4,7.5-4,14.6-8.2,21c-5.4,8.2-12.7,14.1-21.5,18.3c-10,4.7-20.5,7-31.5,7.1c-18.1,0.1-36.2,0-54.3,0c-19.7,0-39.3,0-59,0
		c-6.9,0-13.7,0.9-20.4,2.8c-15.7,4.5-27.4,14-35,28.5c-5.4,10.4-8.1,21.5-8.2,33.1c-0.2,18.3-0.1,36.6-0.1,54.9c0,1.9,0,2-1.9,2
		c-8.6,0-17.3,0-25.9,0c-4.2,0-8.4,0-12.6,0c-6.1-0.1-12-1.3-17.6-3.6c-8.8-3.6-16.1-9.4-22.1-16.7c-6.2-7.4-10.6-15.8-14.1-24.7
		c-5.4-13.9-8.2-28.5-9.7-43.3c-0.5-5.4-0.7-10.8-1.1-16.2c-0.1-1.4-0.3-2.7-0.4-4.1c0-4,0-8,0-12.1c0.2-1.5,0.4-3,0.4-4.5
		c0.3-7.5,0.9-14.9,2-22.3c1.3-9.3,3.4-18.5,6.5-27.4c3-8.5,6.9-16.5,12.3-23.7c8.5-11.4,19.4-19.4,33-23.6
		c7.3-2.2,14.7-3.1,22.3-3.1c37.6,0,75.1,0,112.7,0c14,0,28.1,0,42.1,0c0.6,0,1.2-0.1,1.7-0.1c0.3-1.3,0.3-14.7,0-15.9
		c-0.5,0-1-0.1-1.5-0.1c-4.3,0-8.7,0-13,0c-31.9,0-63.9,0-95.8,0c-0.6,0-1.3,0-2-0.1c-0.1-0.5-0.1-1-0.1-1.4c0-17.3,0-34.6,0-51.9
		c0-7.1,2-13.6,6-19.4c3.5-5.1,7.9-9.2,13-12.6c7.2-4.8,15.1-8.1,23.4-10.6C177.8,5,190.9,3,204.2,2c6.7-0.5,13.5-0.7,20.2-1.1
		C225,0.9,225.5,0.8,226,0.7z M171,77c11.2,0,20.3-9,20.3-20.2c0-11.3-9-20.4-20.3-20.4c-11.3,0-20.4,9.1-20.4,20.3
		C150.7,68,159.7,77,171,77z"/>
</g>
</svg>
