<?xml version="1.0" encoding="utf-8"?>
<!-- Generator: Adobe Illustrator 28.1.0, SVG Export Plug-In . SVG Version: 6.00 Build 0)  -->
<svg version="1.1" id="Layer_3" xmlns="http://www.w3.org/2000/svg" xmlns:xlink="http://www.w3.org/1999/xlink" x="0px" y="0px"
	 viewBox="0 0 467.5 464.8" style="enable-background:new 0 0 467.5 464.8;" xml:space="preserve">
<path d="M374.4,464.8H93.1C41.7,464.8,0,423.1,0,371.7V93.1C0,41.7,41.7,0,93.1,0h281.3c51.4,0,93.1,41.7,93.1,93.1v278.6
	C467.5,423.1,425.8,464.8,374.4,464.8z M271.9,230.5c7.5-7.4,12-16.3,13.7-26.7c0.6-3.5,1.2-7.1,1.8-10.6
	c2.3-12.3,11.7-20.3,24.3-20.4c16.9-0.1,33.7,0,50.6,0c3.2,0,3.2,0,4.1,3c6.6,20.6,27.6,36,52.8,31.8c23.7-3.9,43.2-26.9,38.1-54.9
	c-4.7-25.3-28.3-40.9-51.6-37.9c-17,2.2-29.2,11.2-36.9,26.5c-1,2.1-1.7,4.3-2.5,6.4c-0.7,2-0.7,2-2.9,2.1c-0.7,0-1.4,0-2.1,0
	c-16.3,0-32.7,0-49,0c-2.7,0-5.5,0.2-8.2,0.6c-19.3,2.8-35,17.7-38.8,36.8c-1,4.8-1.6,9.6-2.5,14.4c-2,10.4-10.9,18.4-21.4,19
	c-5.8,0.4-11.6,0.2-17.4,0.3c-3.5,0-3.5,0-4.6-3.3c-7.1-21.1-27.9-35.3-51.5-31.6c-18.8,2.9-31.3,14-37.8,31.9c-1.1,3-1,3.1-4.3,3.1
	c-6.6,0-13.2,0-19.8,0c-3.8,0-3.9,0-5.1-3.8c-6.9-20.3-27.3-34.8-51.3-31.3C24,189.6,5.8,213.2,10,239.9
	c4.2,26.9,30.7,44.7,57.2,38.1c16.6-4.1,27.7-14.5,33.6-30.6c1.4-3.8,0.5-3.5,5-3.5c6.3,0,12.7,0,19,0c5,0,4-0.4,5.5,3.9
	c8.9,25.7,38,38.6,63,27.6c12.9-5.7,21.6-15.4,26.1-28.8c0.9-2.7,0.9-2.8,3.7-2.8c5.6,0,11.1-0.1,16.7,0c11.4,0.2,20.8,8.2,23,19.4
	c0.7,3.8,1.3,7.6,2,11.4c3.9,23.7,23.1,40.1,47,40.1c1.6,0,3.3,0,4.9,0c1.1,0,1.8,0.4,2.1,1.5c0.1,0.5,0.3,1,0.5,1.5
	c7.3,22.3,29.5,35.7,52.5,31.9c25.6-4.2,43-29,38.4-54.5c-4.2-23.4-24.7-38.9-46.2-38.7c-14.5,0.2-26.4,5.7-35.9,16.5
	c-4.2,4.8-7.1,10.2-9,16.3c-0.8,2.5-0.9,2.6-3.6,2.7c-1.5,0-3.1,0-4.6,0c-11.8-0.4-21.2-8.4-23.3-20c-0.7-3.9-1.3-7.7-2-11.6
	c-1.7-9.7-5.9-18.2-12.8-25.2c-0.8-0.8-1.5-1.6-2.5-2.6C270.9,231.6,271.4,231,271.9,230.5z M56.5,208.4c13,0.1,23.8,10.4,23.9,24.2
	c0,13.2-11.1,24.1-24.2,23.9c-15-0.3-24.2-12.7-23.8-24.2C32.4,219,43.2,208.2,56.5,208.4z M198.6,233.4c-0.5,11.4-9.7,23.1-24.2,23
	c-13.8-0.1-24-11.2-23.8-24.4c0.2-13.1,11.2-23.8,24.2-23.6C189.2,208.6,199.1,220.8,198.6,233.4z M387.2,161.5
	c-0.1-13.2,10.8-24.1,24-24.1c13.2,0,24.1,10.8,24.1,24c-0.1,14.8-12.5,24.3-24,24C399.7,185.8,387.3,176.3,387.2,161.5z
	 M363.9,279.4c13.2,0,24,10.8,24,24c0,13.1-11,24-24.1,24c-13.2,0-23.9-10.9-23.9-24.1C339.9,290,350.6,279.4,363.9,279.4z"/>
</svg>
