<?xml version="1.0" encoding="utf-8"?>
<!-- Generator: Adobe Illustrator 28.1.0, SVG Export Plug-In . SVG Version: 6.00 Build 0)  -->
<svg version="1.1" id="Layer_1" xmlns="http://www.w3.org/2000/svg" xmlns:xlink="http://www.w3.org/1999/xlink" x="0px" y="0px"
	 viewBox="0 0 288 288" style="enable-background:new 0 0 288 288;" xml:space="preserve">
<g>
	<polygon points="87.7,185 122.2,174.1 122.4,210.2 77.6,271.9 42.9,246.6 	"/>
	<polygon points="200.3,103 165.8,113.9 165.6,77.8 210.4,16.1 245.1,41.4 	"/>
</g>
<g>
	<polygon points="74.3,144.1 108.7,155.5 87.6,184.9 15.1,208.5 1.9,167.6 	"/>
	<polygon points="213.7,143.9 179.3,132.5 200.4,103.1 272.9,79.5 286.1,120.4 	"/>
</g>
<g>
	<polygon points="87.6,103.1 108.7,132.5 74.3,143.9 1.9,120.4 15.1,79.5 	"/>
	<polygon points="200.4,184.9 179.3,155.5 213.7,144.1 286.1,167.6 272.9,208.5 	"/>
</g>
<g>
	<polygon points="122.4,77.8 122.2,113.9 87.7,103 42.9,41.4 77.6,16.1 	"/>
	<polygon points="165.6,210.2 165.8,174.1 200.3,185 245.1,246.6 210.4,271.9 	"/>
</g>
<g>
	<polygon points="165.5,77.7 144,106.8 122.5,77.7 122.5,1.5 165.5,1.5 	"/>
	<polygon points="122.5,210.3 144,181.1 165.5,210.3 165.5,286.5 122.5,286.5 	"/>
</g>
</svg>
