<?xml version="1.0" encoding="utf-8"?>
<!-- Generator: Adobe Illustrator 28.1.0, SVG Export Plug-In . SVG Version: 6.00 Build 0)  -->
<svg version="1.1" id="Layer_3" xmlns="http://www.w3.org/2000/svg" xmlns:xlink="http://www.w3.org/1999/xlink" x="0px" y="0px"
	 viewBox="0 0 467.5 464.8" style="enable-background:new 0 0 467.5 464.8;" xml:space="preserve">
<path d="M374.4,0H93.1C41.7,0,0,41.7,0,93.1v278.6c0,51.4,41.7,93.1,93.1,93.1h281.3c51.4,0,93.1-41.7,93.1-93.1V93.1
	C467.5,41.7,425.8,0,374.4,0z M261.4,177.6h48.7v48.7h-48.7V177.6z M198.7,55h48.7v48.7h-48.7V55z M198.7,116.3h48.7V165h-48.7
	V116.3z M198.7,177.6h48.7v48.7h-48.7V177.6z M136,116.3h48.7V165H136V116.3z M136,177.6h48.7v48.7H136V177.6z M73.3,116.3H122V165
	H73.3V116.3z M73.3,177.6H122v48.7H73.3V177.6z M10.6,177.6h48.7v48.7H10.6V177.6z M458.3,206c-1.4,2.9-2.7,5.8-4.1,8.7
	c-7.3,16.3-18.4,28-33.9,34.3c-12,4.9-24.5,5.8-37.2,5.5c-2.8-0.1-2.8-0.1-3.9,2.8c-5.5,15.1-11.7,29.8-18.8,44
	c-13.2,26.5-29,50.9-49,71.7c-16.9,17.6-35.9,31.7-57.4,41.7c-20.5,9.5-41.8,14.8-63.9,16.4c-2.7,0.2-5.4,0.4-8.1,0.7
	c-4.9,0-9.8,0-14.7,0c-1.2-0.1-2.4-0.3-3.6-0.4c-24.8-1.3-48.7-6.4-71.2-18.5c-27.1-14.6-47.7-36.7-62.1-66
	c-10-20.4-16-42.3-19-65.2c-1.6-11.8-2.3-23.7-2.3-35.6c0-2.6,0-2.6,2.3-2.6c61.7,0,123.4,0,185,0c14.7,0,29.4,0.1,44.1,0.2
	c11.2,0.1,22.5,0.2,33.7,0.1c13-0.1,25.9-0.3,38.8-2.1c10.8-1.5,21.2-4.6,30.8-10.4c0.5-0.3,1-0.6,1.4-0.9c0.1-0.1,0.2-0.2,0.4-0.5
	c-0.2-0.3-0.3-0.8-0.5-1.1c-7.8-11.8-11.2-25.1-11.5-39.6c-0.4-17.7,2.9-34.5,11.2-49.8c1.9-3.5,4-6.8,6.1-10.3
	c10.8,7.2,19.7,16.3,26.9,27.4c7.3,11.2,11.4,23.8,12.3,37.7c3.5-0.7,6.7-1.5,9.9-1.9c13.4-1.9,26.8-1.3,39.9,2.4
	c5.5,1.6,10.4,4.3,14.9,8c1.1,0.9,2.3,1.5,3.4,2.3C458.3,205.2,458.3,205.6,458.3,206z"/>
</svg>
