<?xml version="1.0" encoding="utf-8"?>
<!-- Generator: Adobe Illustrator 28.1.0, SVG Export Plug-In . SVG Version: 6.00 Build 0)  -->
<svg version="1.1" id="Layer_1" xmlns="http://www.w3.org/2000/svg" xmlns:xlink="http://www.w3.org/1999/xlink" x="0px" y="0px"
	 viewBox="0 0 360.5 336.9" style="enable-background:new 0 0 360.5 336.9;" xml:space="preserve">
<path d="M180.2,213.6c-56.8,0-113.6,0-170.4,0c-8.2,0-9.9-1.7-9.9-10c0-23.9,0-47.7,0-71.6c0-6.9,2.1-9,8.8-9
	c114.2,0,228.5,0,342.8,0c6.8,0,8.9,2.1,8.9,9c0,24,0,48,0,72c0,7.7-1.9,9.6-9.5,9.6C294.1,213.6,237.1,213.6,180.2,213.6
	L180.2,213.6z M253.4,174.6c-0.6-2.1-1-3.4-1.3-4.7c-2.4-9.4-4.7-18.9-7.1-28.3c-1.2-4.7-4.6-6.9-8.5-5.9c-3.7,1-5.6,4.7-4.5,9.1
	c4,16.6,8.2,33.1,12.3,49.6c0.8,3.4,2.4,6.1,6.2,6.5c4,0.5,6.1-2,7.7-5.3c3.5-7.3,7.2-14.5,10.8-21.8c0.4-0.9,1.1-1.6,1.9-2.9
	c4.4,8.9,8.5,17.3,12.6,25.6c1.4,2.9,3.6,4.7,7,4.4c3.2-0.3,5.2-2.2,6-5.2c4.3-17.2,8.6-34.4,12.8-51.6c1-4.1-1.3-7.7-4.9-8.5
	c-3.7-0.9-7,1.2-8.2,5.4c-1.2,4.3-2.2,8.7-3.3,13c-1.6,6.6-3.3,13.1-5.2,20.6c-3.7-7.5-7-14-10.1-20.6c-1.5-3-3.5-5.3-7-5.3
	c-3.5,0-5.5,2.2-7,5.2C260.4,160.6,257.1,167.1,253.4,174.6z M163.2,174.5c-0.6-2-1-3.3-1.3-4.5c-2.4-9.6-4.7-19.2-7.2-28.7
	c-1.1-4.4-4.7-6.6-8.4-5.6c-3.7,1-5.7,4.6-4.6,9.1c4.1,16.7,8.3,33.3,12.4,50c0.8,3.3,2.5,5.7,6,6.2c3.8,0.5,5.9-1.7,7.5-4.9
	c3.6-7.4,7.3-14.8,11-22.1c0.4-0.9,1.1-1.7,1.9-2.9c4.3,8.6,8.3,16.7,12.3,24.8c1.6,3.3,3.8,5.7,7.8,5.1c3.8-0.5,5.2-3.3,6-6.7
	c2.5-10.5,5.2-21,7.8-31.5c1.5-6.2,3.2-12.3,4.6-18.5c0.9-4.1-1.2-7.7-4.8-8.6c-3.5-0.9-6.9,1.1-8.1,4.9c-0.4,1.3-0.7,2.6-1,3.9
	c-2.4,9.7-4.9,19.5-7.5,30.2c-3.6-7.3-6.8-13.7-9.9-20.1c-1.5-3.1-3.4-5.7-7.1-5.8c-3.9-0.1-5.9,2.6-7.4,5.8
	C169.9,161,166.7,167.4,163.2,174.5L163.2,174.5z M90,170.6c4.5,9.2,8.6,17.4,12.7,25.6c1.6,3.2,3.8,5.3,7.6,4.8
	c3.5-0.5,5.1-3,5.9-6.3c2-8.4,4.2-16.8,6.2-25.2c2.1-8.3,4.2-16.5,6.2-24.8c1-4.4-1-8.1-4.8-9c-3.7-0.9-7,1.2-8.2,5.3
	c-0.7,2.2-1.1,4.5-1.7,6.7c-2.2,8.7-4.4,17.4-6.8,27c-3-6.1-5.5-11.4-8.2-16.5c-2.1-4-3.1-9.3-8.9-9.3c-5.8-0.1-6.9,5.2-9,9.2
	c-2.7,5.2-5.3,10.5-8.2,16.6c-0.6-2.1-1-3.4-1.3-4.6c-2.4-9.7-4.8-19.4-7.3-29.1c-1.1-4.1-4.6-6.1-8.3-5.1c-3.4,0.9-5.7,4.3-4.7,8.3
	c4.2,17.4,8.4,34.7,13,51.9c0.5,2,3.5,4.5,5.6,4.8s4.6-1.8,6.6-3.3c1-0.7,1.3-2.3,1.9-3.5C82.1,186.4,85.9,178.9,90,170.6L90,170.6z
	 M187.3,0.2c6.7,0.7,12.6,3.1,18.2,6.3c15.8,9,26.7,22.8,35.7,38.3c3.1,5.3,5.7,10.9,8.9,17.1c-7.5,1.6-14.1,3.4-20.8,4.2
	c-12.8,1.6-25.6,2.5-38.4,3.8c-2.4,0.2-4,0-4-3.3c0.1-21.3,0.1-42.5,0.1-63.8C186.9,2,187.1,1.2,187.3,0.2L187.3,0.2z M173.3,0
	c0.1,1.8,0.2,3,0.2,4.1c0,20.5-0.1,40.9,0.1,61.4c0,3.7-1.1,4.5-4.6,4.4c-19-0.6-37.6-3.2-56-7.6c-0.5-0.1-1-0.3-2.1-0.7
	C118,45.2,127,30.4,139.7,18C149.1,9,159.7,2.3,173.3,0L173.3,0z M186.9,336.5c0-1.8,0-3.1,0-4.5c0-20.3,0.1-40.6-0.1-61
	c0-3.6,0.9-4.6,4.5-4.5c18.3,0.5,36.3,3.1,54.1,7c1.2,0.3,2.3,0.7,4.2,1.2c-7.6,17.3-17.1,32.9-30.9,45.5
	C209.8,328.6,199.7,334.6,186.9,336.5L186.9,336.5z M111.4,274.1c10.8-1.9,21.5-4,32.3-5.5c8.8-1.1,17.6-1.3,26.4-2
	c2.3-0.2,3.4,0.4,3.4,3.1c-0.1,21.7-0.1,43.3-0.1,65c0,0.4-0.2,0.8-0.5,2.2c-4.7-1.6-9.5-2.7-13.8-4.8c-15.6-7.3-26.8-19.7-35.9-34
	c-4.6-7.2-8.5-15-12.7-22.5L111.4,274.1L111.4,274.1z M336.9,109.5c-12.4,0-24,0-35.7,0c-6.6,0-13.1-0.2-19.7,0.1
	c-2.8,0.1-3.6-1.1-4.2-3.5c-2.7-10.7-5.6-21.4-8.5-32.1c-0.5-1.8-0.8-3,1.4-3.8c11.6-4.6,23.1-9.2,35.1-14
	C318.7,71.3,329.3,89,336.9,109.5z M337.7,227.1c-5,10-9,19.3-14.2,27.9c-5,8.3-11.1,15.9-16.8,23.8c-1.1,1.5-2,2.3-4.3,1.4
	c-10.8-4.7-21.7-9.2-32.6-13.8c-0.6-0.2-1.1-0.7-1.6-1c2.5-9.1,4.9-18.1,7.3-27.1c0.1-0.4,0.3-0.8,0.4-1.2c0.8-3.2,0.7-7.7,2.8-9.3
	c2.1-1.7,6.4-0.6,9.7-0.6C304.4,227.1,320.2,227.1,337.7,227.1L337.7,227.1z M23.7,109.1c7.3-20,18-37.7,31.4-53
	c12.1,4.8,23.7,9.4,35.2,14.2c0.8,0.3,1.5,2.3,1.3,3.3c-2.8,11-5.8,21.9-8.6,32.9c-0.5,1.9-1,3-3.4,3c-18.1-0.1-36.2-0.1-54.3-0.1
	C24.9,109.5,24.6,109.3,23.7,109.1L23.7,109.1z M23.5,227.1c13.2,0,25.7,0,38.1,0c5.8,0,11.5,0.1,17.3,0c2.4-0.1,3.5,0.6,4.1,3.1
	c2.7,11,5.8,21.9,8.6,32.9c0.2,0.9-0.4,2.8-1.1,3.1c-11.6,4.8-23.3,9.4-35.4,14.3C41.7,265.2,31.1,247.6,23.5,227.1L23.5,227.1z
	 M96.7,227.3h76.5v25.1c-4.3,0.3-8.5,0.8-12.8,1c-17.3,0.8-34.4,3.7-51.2,7.7c-2.2,0.5-3.8,0.9-4.6-2c-2.6-9.7-5.3-19.3-7.9-28.9
	C96.6,229.4,96.8,228.6,96.7,227.3L96.7,227.3z M173.2,109.3H96.5c0.3-2.2,0.4-4.1,0.9-6c2.4-8.6,4.8-17.2,7.2-25.8
	c0.5-2,1.4-2.9,3.7-2.3c20.9,5.4,42.1,7.9,63.6,8.7c0.3,0,0.5,0.1,1.1,0.3V109.3z M255.5,75.9c2.8,10.2,5.9,21.4,9.2,33.3h-77.5v-24
	C209.7,82.1,232.1,79.1,255.5,75.9L255.5,75.9z M187.1,252.2v-24.8H264c-0.4,2.4-0.5,4.7-1.1,6.8c-2.3,8.2-4.7,16.4-7,24.6
	c-0.5,1.8-1.1,3.2-3.6,2.5c-20.9-5.3-42.1-7.9-63.6-8.7C188.2,252.7,187.8,252.5,187.1,252.2L187.1,252.2z M230.3,329.4
	c6.4-8.3,13-15.9,18.4-24.2c5.5-8.3,9.8-17.3,15.1-27c9.8,3.9,20.1,8.1,31.5,12.7C275.9,309.2,254.7,321.6,230.3,329.4L230.3,329.4z
	 M294.6,45.8c-10.6,4.3-20.9,8.5-31.5,12.8c-7.9-19.5-18.7-36.1-33-50.6C241.1,7.1,284.8,32.5,294.6,45.8z M130,7.7
	C116.1,22.4,105.3,39,97.5,58.6c-10.6-4.3-21-8.4-32.2-13C84.5,27.3,105.8,15,130,7.7L130,7.7z M65.2,291c11.3-4.6,21.6-8.7,32.2-13
	c7.9,19.5,18.7,36.3,32.8,50.9C105.9,321.7,84.6,309.2,65.2,291L65.2,291z"/>
</svg>
